<svg width="113" height="158" viewBox="0 0 113 158" fill="none" xmlns="http://www.w3.org/2000/svg">
<path fill-rule="evenodd" clip-rule="evenodd" d="M40.6375 129.251V104.909H60.7845V128.394C60.7845 128.394 61.0535 142.815 48.1819 152.136C48.1819 152.136 27.8785 166.011 9.85969 149.564C9.85969 149.564 0.698109 140.528 0.000507163 130.708V37.1982C0.000507163 37.1982 -0.57664 0 37.2082 0H86.0755C86.0755 0 92.628 0.120937 100.393 5.74258C100.393 5.74258 110.129 24.618 92.8483 29.2272C92.8483 29.2272 92.1804 21.2904 84.3608 20.4847H39.2658C39.2658 20.4847 22.6478 21.2005 20.0618 42.7694V127.365C20.0618 127.365 20.0819 138.434 30.5211 138.165C30.5211 138.165 40.452 139.111 40.6375 129.251Z" fill="#6736DD"/>
<path fill-rule="evenodd" clip-rule="evenodd" d="M92.9341 29.2273C92.9341 29.2273 92.2954 25.4687 90.5336 23.5704C90.5336 23.5704 102.21 20.3663 100.221 5.57129C100.221 5.57129 109.776 26.5284 92.9341 29.2273Z" fill="black"/>
<path opacity="0.5" fill-rule="evenodd" clip-rule="evenodd" d="M40.5775 129.251C40.5775 129.251 49.1312 113.19 60.7845 118.451V110.909H50.6375C50.6375 110.909 39.237 111.57 40.5775 129.251Z" fill="black"/>
<path fill-rule="evenodd" clip-rule="evenodd" d="M50.7324 29.8633L86.1612 29.8273C86.1612 29.8273 107.593 32.3398 100.135 5.57129C100.135 5.57129 113.283 13.5959 112.995 29.8633C112.995 29.8633 112.547 50.1097 91.2356 50.1097H55.7953C55.7953 50.1097 50.7324 50.1097 50.7324 55.1713C50.7324 55.1713 50.7324 60.2329 55.7953 60.2329H91.2356C91.2356 60.2329 110.602 63.5566 112.91 82.7104C112.91 82.7104 115.374 105.787 91.2356 110.849H50.7324C50.7324 110.849 40.6066 112.05 40.6066 129.165C40.6066 129.165 26.9323 122.194 29.3208 107.652C29.3208 107.652 31.6631 90.6026 50.7324 90.6026H86.1723C86.1723 90.6026 91.2356 90.6026 91.2356 85.5406C91.2356 85.5406 91.2357 80.4794 86.1723 80.4794H50.7324C50.7324 80.4794 29.4028 75.4178 29.3208 55.1717C29.3208 55.1717 28.8569 33.0296 50.7324 29.8633Z" fill="#10C4F8"/>
</svg>
